<svg width="178" height="192" xmlns="http://www.w3.org/2000/svg" xmlns:xlink="http://www.w3.org/1999/xlink" xml:space="preserve" overflow="hidden"><defs><clipPath id="clip0"><rect x="335" y="264" width="178" height="192"/></clipPath></defs><g clip-path="url(#clip0)" transform="translate(-335 -264)"><path d="M154.243 44.1694 93.0463 194.305 134.211 194.305 195.307 44.1694Z" fill="#FFB71B" transform="matrix(1.00093 0 0 1 244.077 224.315)"/><path d="M184.29 99.4564 223.351 194.305 267.42 194.305 205.323 48.977Z" transform="matrix(1.00093 0 0 1 244.077 224.315)"/><path d="M207.874 706.772C200.504 706.772 193.89 708.261 188.031 711.232 182.135 714.202 177.373 718.526 173.707 724.195L173.707 709.342 142.488 709.342 142.488 813.657 174.576 813.657 174.576 755.074C174.576 748.006 176.595 742.337 180.624 738.066 184.668 733.833 189.997 731.679 196.649 731.679 202.167 731.679 206.249 733.308 208.857 736.554 211.476 739.816 212.787 744.983 212.787 752.05L212.787 813.279 244.876 813.279 244.876 750.539C244.876 735.798 241.826 724.8 235.729 717.505 229.644 710.211 220.346 706.583 207.874 706.583Z" transform="matrix(1.00093 0 0 1 377.24 -395.528)"/><path d="M321.638 752.126 304.025 748.082C299.792 746.952 296.806 745.754 295.106 744.472 293.416 743.191 292.566 741.422 292.566 739.181 292.566 736.071 293.975 733.663 296.799 731.962 299.622 730.261 303.526 729.411 308.477 729.411 319.249 729.411 330.134 733.228 341.208 740.863L349.712 719.622C344.043 715.502 337.655 712.328 330.588 710.06 323.52 707.8 316.226 706.658 308.704 706.658 299.898 706.658 292.112 708.079 285.233 710.891 278.355 713.722 273.063 717.619 269.322 722.57 265.561 727.521 263.69 733.266 263.69 739.767 263.69 747.969 266.071 754.469 270.796 759.194 275.52 763.956 282.928 767.433 293.019 769.701L310.027 773.518C315.281 774.648 318.833 775.93 320.761 777.335 322.67 778.757 323.63 780.737 323.63 783.269 323.63 786.108 322.25 788.334 319.472 789.959 316.713 791.588 312.858 792.401 307.907 792.401 300.952 792.401 294.112 791.342 287.308 789.222 280.505 787.09 274.269 784.12 268.6 780.302L260.096 802.375C265.878 806.495 272.795 809.632 280.808 811.824 288.82 814.012 297.626 815.112 307.264 815.112 321.286 815.112 332.285 812.243 340.297 806.495 348.31 800.75 352.316 792.85 352.316 782.797 352.316 774.444 349.875 767.83 344.984 762.954 340.071 758.041 332.323 754.413 321.702 751.994Z" transform="matrix(1.00093 0 0 1 377.24 -395.528)"/><path d="M559.37 763.465C554.495 758.589 546.746 754.923 536.126 752.542L518.476 748.498C514.243 747.368 511.257 746.169 509.556 744.888 507.855 743.607 507.005 741.838 507.005 739.597 507.005 736.486 508.426 734.079 511.238 732.378 514.05 730.677 517.965 729.827 522.917 729.827 533.688 729.827 544.573 733.644 555.647 741.279L564.151 720.038C558.482 715.918 552.094 712.743 545.027 710.476 537.959 708.215 530.665 707.074 523.143 707.074 514.375 707.074 506.551 708.495 499.672 711.307 492.794 714.138 487.465 718.035 483.723 722.986 479.974 727.937 478.091 733.682 478.091 740.183 478.091 748.384 480.461 754.885 485.197 759.609 489.921 764.372 497.329 767.849 507.383 770.117L524.391 773.934C529.644 775.064 533.197 776.345 535.124 777.751 537.044 779.172 537.993 781.153 537.993 783.685 537.993 786.523 536.614 788.75 533.836 790.375 531.077 792.004 527.221 792.816 522.27 792.816 515.316 792.816 508.475 791.758 501.672 789.638 494.869 787.506 488.632 784.535 482.963 780.718L474.459 802.791C480.28 806.91 487.158 810.047 495.171 812.239 503.184 814.428 511.99 815.528 521.628 815.528 535.65 815.528 546.648 812.659 554.661 806.91 562.673 801.165 566.68 793.266 566.68 783.213 566.661 774.86 564.219 768.246 559.347 763.332Z" transform="matrix(1.00093 0 0 1 377.24 -395.528)"/><path d="M516.813 232.365 547.861 232.365 605.953 90.1417 574.904 90.1417 549.865 151.238 524.825 90.1417 493.776 90.1417 533.839 189.298Z" transform="matrix(1.00093 0 0 1 244.077 224.315)"/></g></svg>