<svg width="96" height="96" xmlns="http://www.w3.org/2000/svg" xmlns:xlink="http://www.w3.org/1999/xlink" xml:space="preserve" overflow="hidden"><g transform="translate(-517 -393)"><path d="M593.8 456.6C589.4 453 583.8 450.6 578.2 449 574.2 447.8 569.8 447 565 447 560.6 447 556.2 447.8 551.8 449 546.2 450.6 540.6 453.4 536.2 456.6 534.2 458.2 533 460.6 533 463L533 479 597 479 597 463C597 460.6 595.8 458.2 593.8 456.6Z"/><path d="M549.4 413.4C550 413.4 550.5 413.2 550.8 412.8L550.8 412.8C554.5 409.2 559.5 407 565 407 576 407 585 416 585 427L585 431.6 573.5 435.4C573 435.2 572.5 435 572 435 570.3 435 569 436.3 569 438 569 439.7 570.3 441 572 441 573.2 441 574.3 440.3 574.8 439.2L590.7 433.9C591.5 433.6 592.1 432.9 592.1 432L592.1 423C592.1 421.9 591.2 421 590.1 421L588.3 421C585.6 410.7 576.2 403 565 403 558.5 403 552.6 405.6 548.2 409.8 547.7 410.2 547.4 410.7 547.4 411.4 547.4 412.5 548.3 413.4 549.4 413.4Z"/><path d="M580.9 428.7C581 428.1 581 427.6 581 427 581 418.2 573.8 411 565 411 556.2 411 549 418.2 549 427 549 435.8 556.2 443 565 443 565.3 443 565.7 443 566 442.9L566 438 566 438C566 437.1 566.2 436.2 566.6 435.3 567.3 433.9 568.5 432.8 570.1 432.3L580.9 428.7Z"/></g></svg>