<svg width="96" height="96" xmlns="http://www.w3.org/2000/svg" xmlns:xlink="http://www.w3.org/1999/xlink" xml:space="preserve" overflow="hidden"><g transform="translate(-592 -312)"><path d="M680.447 347.276 679.979 346.807C679.83 346.658 679.753 346.453 679.767 346.243L680.121 341.053C680.226 339.523 679.718 338.013 678.709 336.858L677.572 335.558 679.359 331.931C679.552 331.54 679.391 331.067 679 330.874 678.892 330.821 678.773 330.793 678.652 330.793 678.483 330.794 678.318 330.851 678.184 330.954L673.677 334.317 673.677 329.577C673.679 329.151 673.334 328.804 672.908 328.802 672.904 328.802 672.901 328.802 672.897 328.802 672.679 328.802 672.472 328.895 672.328 329.059L669.171 332.565C668.852 332.918 668.464 333.202 668.03 333.399L665.95 334.34C663.366 335.509 661.208 337.452 659.775 339.9L655.4 347.383C654.667 348.637 653.384 349.47 651.94 349.63L646.159 350.27C642.358 350.749 638.726 352.13 635.568 354.3L632.284 356.557C629.442 358.513 627.054 361.058 625.284 364.019L622.284 369.038C621.197 370.939 619.502 372.418 617.472 373.238 614.698 374.301 611.742 374.812 608.772 374.743 606.346 374.726 603.926 374.492 601.541 374.043 601.364 374.013 601.185 373.999 601.005 374 599.348 373.998 598.003 375.34 598.002 376.996 598 378.448 599.038 379.693 600.467 379.952 603.231 380.469 606.035 380.736 608.847 380.752 612.855 380.842 616.835 380.065 620.515 378.473L620.801 378.316 620.801 387C620.801 388.657 622.144 390 623.801 390L626.801 390C628.458 390 629.801 388.657 629.801 387 629.801 385.343 628.458 384 626.801 384L626.801 383.719 631.801 383.719 631.801 387C631.801 388.657 633.144 390 634.801 390L646.801 390C648.458 390 649.801 388.657 649.801 387 649.801 385.343 648.458 384 646.801 384L637.801 384 637.801 383.714C641.341 383.693 644.78 382.531 647.607 380.4L648.598 379.652C649.404 379.043 650.28 378.533 651.208 378.133L654.908 376.538C656.439 375.882 658.035 375.387 659.669 375.061L667.148 382.394C668.348 383.537 670.247 383.491 671.389 382.291 672.509 381.116 672.491 379.263 671.348 378.11L664.764 371.654 665.382 370.377 675.728 374.33C677.295 374.868 679.002 374.035 679.54 372.468 680.052 370.977 679.324 369.344 677.872 368.73L668.135 365 669.3 362.919C670.008 361.654 670.457 360.26 670.62 358.819L671.103 354.543C671.205 353.641 671.968 352.959 672.876 352.959L675.15 352.959C676.223 352.959 677.267 352.616 678.131 351.98L680.209 350.45C681.142 349.761 681.34 348.446 680.651 347.513 680.589 347.429 680.521 347.35 680.447 347.276ZM668.041 354.914 658.209 348.523 659.725 345.931 669 351.958C668.52 352.618 668.218 353.391 668.123 354.202Z"/></g></svg>