<svg width="243" height="322" xmlns="http://www.w3.org/2000/svg" xmlns:xlink="http://www.w3.org/1999/xlink" xml:space="preserve" overflow="hidden"><defs><clipPath id="clip0"><rect x="137" y="212" width="243" height="322"/></clipPath></defs><g clip-path="url(#clip0)" transform="translate(-137 -212)"><path d="M82.4213 242.718C82.4213 242.718 70.5118 249.967 90.706 252.038 115.042 255.145 127.987 254.627 154.913 249.449 154.913 249.449 162.162 254.109 172 257.734 111.418 283.624 34.784 256.18 82.4213 242.718L82.4213 242.718ZM74.6542 209.061C74.6542 209.061 61.7095 218.899 81.9034 220.97 108.311 223.559 129.023 224.077 164.751 216.828 164.751 216.828 169.411 222.006 177.178 224.595 104.169 246.342 22.3567 226.666 74.6547 209.061L74.6542 209.061ZM217.566 268.09C217.566 268.09 226.369 275.339 207.728 281.035 173.035 291.391 62.2266 294.497 31.1588 281.035 20.2852 276.375 40.9971 269.643 47.7281 268.608 54.4595 267.054 58.084 267.054 58.084 267.054 46.1752 258.769-21.1386 284.141 23.9094 291.391 147.663 311.585 249.669 282.588 217.565 268.09L217.566 268.09ZM88.1167 173.851C88.1167 173.851 31.6771 187.313 67.923 191.974 83.4569 194.045 114.007 193.527 142.486 191.456 165.786 189.385 189.088 185.242 189.088 185.242 189.088 185.242 180.803 188.867 175.107 192.492 117.632 207.507 7.34072 200.776 38.9262 185.242 65.8516 172.297 88.1164 173.851 88.1164 173.851L88.1167 173.851ZM189.088 230.29C247.081 200.258 220.156 171.262 201.515 174.887 196.854 175.922 194.783 176.958 194.783 176.958 194.783 176.958 196.337 173.851 199.961 172.815 236.725 159.87 265.721 211.65 188.052 231.844 188.052 231.844 188.57 231.326 189.088 230.29L189.088 230.29ZM93.8129 312.102C149.735 315.727 235.172 310.031 237.242 283.624 237.242 283.624 233.1 293.98 191.159 301.746 143.521 310.549 84.493 309.513 49.8002 303.818 49.8002 303.818 57.0492 310.031 93.8128 312.102L93.8129 312.102Z" fill="#4E7896" transform="matrix(1.00249 0 0 1 134.832 209.022)"/><path d="M153.878 2.97799C153.878 2.97799 185.981 35.5991 123.327 84.7899 73.101 124.66 111.936 147.443 123.327 173.333 93.8129 146.926 72.5833 123.624 87.0814 101.877 108.311 69.7735 166.822 54.2399 153.878 2.97809L153.878 2.97799ZM137.308 151.586C152.324 168.673 133.166 184.207 133.166 184.207 133.166 184.207 171.483 164.531 153.877 140.194 137.825 116.894 125.398 105.502 192.712 66.6671 192.712 66.6671 86.5639 93.0749 137.308 151.586L137.308 151.586ZM98.9911 429.642 98.9911 378.898C98.9911 365.953 91.742 357.151 73.6188 357.151 63.2629 357.151 54.4603 359.74 46.6932 362.846L49.2826 372.167C54.9781 370.096 62.2273 368.024 69.9944 368.024 79.8325 368.024 84.4925 372.167 84.4925 380.452L84.4925 387.183 79.3147 387.183C54.4603 387.183 43.0688 396.503 43.0688 411.519 43.0688 423.946 50.8357 431.196 64.8164 431.196 73.6188 431.196 80.3504 427.053 86.5639 421.875L87.5996 429.642 98.9911 429.642 98.9911 429.642ZM84.4926 413.073C79.3148 417.733 73.6188 420.322 68.4408 420.322 61.7097 420.322 57.5674 416.18 57.5674 408.931 57.5674 401.681 61.7097 396.503 78.2792 396.503L84.4925 396.503 84.4925 413.073 84.4926 413.073ZM147.664 429.642 129.541 429.642 107.793 358.704 123.327 358.704 136.79 402.199 139.897 415.144C146.628 396.503 151.806 377.345 153.878 358.704L169.411 358.704C165.269 382.005 158.02 407.377 147.664 429.642L147.664 429.642ZM231.547 429.642 231.547 378.898C231.547 365.953 224.298 357.151 206.175 357.151 195.819 357.151 187.016 359.74 179.249 362.846L181.321 372.167C187.534 370.096 194.783 368.024 202.55 368.024 212.389 368.024 217.049 372.167 217.049 380.452L217.049 387.183 211.871 387.183C187.016 387.183 175.625 396.503 175.625 411.519 175.625 423.946 182.874 431.196 196.855 431.196 206.175 431.196 212.906 427.053 219.12 421.875L220.156 429.642 231.547 429.642 231.547 429.642ZM217.049 413.073C211.871 417.733 206.175 420.322 200.997 420.322 194.266 420.322 190.123 416.18 190.123 408.931 190.123 401.681 194.266 396.503 210.835 396.503L217.049 396.503 217.049 413.073 217.049 413.073ZM27.0169 441.552C22.8746 447.765 16.6609 452.425 8.89439 455.014L2.16274 446.729C7.34055 443.623 12.5188 438.963 14.5898 434.82 16.6609 431.196 17.1791 426.017 17.1791 414.108L17.1791 333.332 32.713 333.332 32.713 413.073C32.713 429.124 31.1595 435.338 27.017 441.552L27.0169 441.552Z" fill="#F58219" transform="matrix(1.00249 0 0 1 134.832 209.022)"/></g></svg>