<svg width="96" height="96" xmlns="http://www.w3.org/2000/svg" xmlns:xlink="http://www.w3.org/1999/xlink" xml:space="preserve" overflow="hidden"><g transform="translate(-767 -298)"><path d="M793.592 345.973C793.596 345.126 793.651 344.281 793.756 343.441L780.226 343.441 780.226 348.441 793.746 348.441C793.647 347.622 793.596 346.798 793.592 345.973Z"/><path d="M815.006 324.559C815.842 324.563 816.677 324.616 817.506 324.718L817.506 311.161 812.506 311.161 812.506 324.718C813.336 324.616 814.17 324.563 815.006 324.559Z"/><path d="M831.78 332.7 841.367 323.114 837.832 319.58 828.24 329.171C829.553 330.206 830.741 331.391 831.78 332.7Z"/><path d="M801.772 329.171 792.181 319.58 788.646 323.115 798.232 332.7C799.271 331.391 800.459 330.206 801.772 329.171Z"/><path d="M828.277 362.748 837.832 372.3 841.367 368.764 831.808 359.205C830.772 360.519 829.587 361.708 828.277 362.748Z"/><path d="M836.256 343.441C836.471 345.1 836.475 346.781 836.266 348.441L849.786 348.441 849.786 343.441Z"/><path d="M815.006 367.388C814.17 367.384 813.336 367.331 812.506 367.229L812.506 380.721 817.506 380.721 817.506 367.229C816.677 367.331 815.842 367.384 815.006 367.388Z"/><path d="M798.2 359.208 788.642 368.766 792.181 372.3 801.734 362.747C800.423 361.708 799.237 360.52 798.2 359.208Z"/><path d="M832.42 345.973C832.42 355.591 824.623 363.387 815.006 363.387 805.388 363.387 797.592 355.591 797.592 345.973 797.592 336.355 805.388 328.559 815.006 328.559 824.623 328.559 832.42 336.355 832.42 345.973Z"/></g></svg>