<svg width="96" height="96" xmlns="http://www.w3.org/2000/svg" xmlns:xlink="http://www.w3.org/1999/xlink" xml:space="preserve" overflow="hidden"><g transform="translate(-608 -456)"><path d="M653.61 524.14C653.61 526.647 651.577 528.68 649.07 528.68 646.563 528.68 644.53 526.647 644.53 524.14 644.53 521.633 646.563 519.6 649.07 519.6 651.577 519.6 653.61 521.633 653.61 524.14Z"/><path d="M658 539 658 534.46C657.985 533.753 657.655 533.089 657.1 532.65 655.795 531.644 654.303 530.91 652.71 530.49 651.508 530.121 650.258 529.932 649 529.93 647.744 529.949 646.496 530.138 645.29 530.49 643.715 530.956 642.23 531.687 640.9 532.65 640.345 533.089 640.015 533.753 640 534.46L640 539Z"/><path d="M673.47 524.14C673.47 526.647 671.437 528.68 668.93 528.68 666.423 528.68 664.39 526.647 664.39 524.14 664.39 521.633 666.423 519.6 668.93 519.6 671.437 519.6 673.47 521.633 673.47 524.14Z"/><path d="M678 539 678 534.46C677.985 533.753 677.655 533.089 677.1 532.65 675.795 531.644 674.303 530.91 672.71 530.49 671.508 530.121 670.258 529.932 669 529.93 667.744 529.949 666.496 530.138 665.29 530.49 663.715 530.956 662.23 531.687 660.9 532.65 660.345 533.089 660.015 533.753 660 534.46L660 539Z"/><path d="M693.47 524.14C693.47 526.647 691.437 528.68 688.93 528.68 686.423 528.68 684.39 526.647 684.39 524.14 684.39 521.633 686.423 519.6 688.93 519.6 691.437 519.6 693.47 521.633 693.47 524.14Z"/><path d="M698 539 698 534.46C697.985 533.753 697.655 533.089 697.1 532.65 695.795 531.644 694.303 530.91 692.71 530.49 691.508 530.121 690.258 529.932 689 529.93 687.744 529.949 686.496 530.138 685.29 530.49 683.715 530.956 682.23 531.687 680.9 532.65 680.345 533.089 680.015 533.753 680 534.46L680 539Z"/><path d="M635.42 482.16C635.42 485.441 632.761 488.1 629.48 488.1 626.199 488.1 623.54 485.441 623.54 482.16 623.54 478.879 626.199 476.22 629.48 476.22 632.761 476.22 635.42 478.879 635.42 482.16Z"/><path d="M664.51 479.87C663.922 479.29 662.978 479.29 662.39 479.87L649.47 492.79C648.438 492.499 647.328 492.781 646.56 493.53 646.35 493.74 642.62 499.84 642.62 499.84L641.5 495.07C641.352 494.455 641.045 493.889 640.61 493.43 638.767 491.94 636.646 490.832 634.37 490.17 632.761 489.826 631.125 489.628 629.48 489.58 627.821 489.606 626.173 489.854 624.58 490.32 622.284 490.922 620.154 492.037 618.35 493.58 617.911 494.037 617.604 494.603 617.46 495.22 617.46 495.22 613.15 513.32 613.15 513.62 613.15 515.277 614.493 516.62 616.15 516.62 617.478 516.586 618.625 515.683 618.97 514.4L622.09 501.49 622.09 543 628 543 628 516.29 631 516.29 631 543 636.9 543 636.9 501.3 638 506C638.076 506.325 638.292 506.599 638.59 506.75 639.74 507.633 641.141 508.126 642.59 508.16 643.534 508.292 644.469 507.867 644.99 507.07L651.09 497.07C651.48 496.455 651.626 495.717 651.5 495L664.5 482C665.089 481.414 665.093 480.462 664.51 479.87Z"/><path d="M685 466 636 466C633.791 466 632 467.791 632 470L632 473.6C633.529 474.016 634.913 474.847 636 476L636 470 685 470 685 503 650.87 503 648.43 507 685 507C687.209 507 689 505.209 689 503L689 470C689 467.791 687.209 466 685 466Z"/></g></svg>