<?xml version="1.0" encoding="UTF-8"?>
<svg xmlns="http://www.w3.org/2000/svg" version="1.1" viewBox="0 0 1200 1200">
  <defs>
    <style>
      .cls-1 {
        isolation: isolate;
      }

      .cls-2 {
        fill: #f5c82b;
      }
    </style>
  </defs>
  <!-- Generator: Adobe Illustrator 28.6.0, SVG Export Plug-In . SVG Version: 1.2.0 Build 709)  -->
  <g>
    <g id="Layer_1">
      <g id="Layer_2">
        <g id="Layer_2-2">
          <g class="cls-1">
            <path class="cls-2" d="M383.9,685.6c5.4,0,8.3,3,8.3,8.6v4c0,.6-.3,1-.9,1h-5.8c-.6,0-.9-.4-.9-1v-2.5c0-1.6-.8-2.4-2.3-2.4h-3.2c-1.4,0-2.3.8-2.3,2.4v5.1l14,4.7c1,.4,1.5,1.1,1.5,2.2v11.3c0,5.6-2.9,8.6-8.3,8.6h-6.5c-5.4,0-8.3-3-8.3-8.6v-3.9c0-.7.3-1,.9-1h5.8c.6,0,.9.3.9,1v2.5c0,1.6.9,2.4,2.3,2.4h3.1c1.5,0,2.3-.8,2.3-2.4v-6.1l-13.9-4.7c-1-.4-1.6-1.1-1.6-2.2v-10.4c0-5.6,2.9-8.6,8.3-8.6h6.6Z"/>
            <path class="cls-2" d="M421.4,685.6c.6,0,.9.4.9,1v6c0,.6-.3,1-.9,1h-6.7v33.1c0,.7-.3,1-.9,1h-6c-.6,0-.9-.3-.9-1v-33.1h-6.7c-.6,0-.9-.4-.9-1v-6c0-.6.3-1,.9-1h21.2Z"/>
            <path class="cls-2" d="M454,706.3c0,3.5-1.1,5.9-3.2,7.3l3,12.9c.2.7-.2,1.1-.8,1.1h-5.7c-.6,0-.9-.3-1-.8l-2.8-11.8h-5.1v11.7c0,.6-.3,1-.9,1h-5.7c-.6,0-.9-.4-.9-1v-40.1c0-.6.3-1,.9-1h13.9c5.4,0,8.3,3,8.3,8.6v12.1h0ZM444.1,707.2c1.5,0,2.3-.8,2.3-2.4v-9.1c0-1.6-.8-2.4-2.3-2.4h-5.8v13.9h5.8Z"/>
            <path class="cls-2" d="M486.9,692.6c0,.6-.2,1-.9,1h-14.3v9.2h10.9c.6,0,.9.4.9,1v5.9c0,.7-.3,1-.9,1h-10.9v8.9h14.3c.7,0,.9.3.9,1v6c0,.6-.2,1-.9,1h-21.3c-.5,0-.9-.4-.9-1v-40.1c0-.6.3-1,.9-1h21.3c.7,0,.9.4.9,1v6.1Z"/>
            <path class="cls-2" d="M520.5,685.6c.6,0,.9.4.9,1v40.1c0,.6-.3,1-.9,1h-4.6c-.5,0-.8-.2-1-.8l-10.9-22.9v22.7c0,.6-.3,1-.9,1h-5.4c-.6,0-.9-.4-.9-1v-40.1c0-.6.3-1,.9-1h4.6c.5,0,.8.2,1,.8l10.9,22.9v-22.7c0-.6.3-1,.9-1h5.4Z"/>
            <path class="cls-2" d="M531.2,694.3c0-5.6,2.9-8.6,8.3-8.6h6.5c5.4,0,8.3,3,8.3,8.6v4.4c0,.6-.3,1-.9,1h-5.4c-.6,0-.9-.4-.9-1v-2.9c0-1.6-.8-2.4-2.3-2.4h-3.7c-1.6,0-2.3.8-2.3,2.4v21.7c0,1.6.8,2.4,2.3,2.4h3.7c1.5,0,2.3-.8,2.3-2.4v-5.2h-3c-.6,0-.9-.4-.9-1v-6c0-.7.3-1,.9-1h9.4c.6,0,.9.3.9,1v13.7c0,5.6-2.9,8.6-8.3,8.6h-6.5c-5.4,0-8.3-3-8.3-8.6v-24.7h0Z"/>
            <path class="cls-2" d="M585.2,685.6c.6,0,.9.4.9,1v6c0,.6-.3,1-.9,1h-6.7v33.1c0,.7-.3,1-.9,1h-6c-.6,0-.9-.3-.9-1v-33.1h-6.8c-.6,0-.9-.4-.9-1v-6c0-.6.3-1,.9-1h21.3Z"/>
            <path class="cls-2" d="M610,686.6c0-.6.3-1,.9-1h6c.7,0,1,.4,1,1v40.1c0,.6-.3,1-1,1h-6c-.6,0-.9-.4-.9-1v-16h-7.4v16c0,.6-.3,1-.9,1h-6c-.7,0-1-.4-1-1v-40.1c0-.6.3-1,1-1h6c.6,0,.9.4.9,1v16.2h7.4v-16.2Z"/>
            <path class="cls-2" d="M661,685.6c5.4,0,8.3,3,8.3,8.6v4c0,.6-.3,1-.9,1h-5.8c-.6,0-.9-.4-.9-1v-2.5c0-1.6-.8-2.4-2.3-2.4h-3.2c-1.4,0-2.3.8-2.3,2.4v5.1l14,4.7c1,.4,1.5,1.1,1.5,2.2v11.3c0,5.6-2.9,8.6-8.3,8.6h-6.5c-5.4,0-8.3-3-8.3-8.6v-3.9c0-.7.3-1,.9-1h5.8c.6,0,.9.3.9,1v2.5c0,1.6.9,2.4,2.3,2.4h3.1c1.5,0,2.3-.8,2.3-2.4v-6.1l-13.9-4.7c-1-.4-1.6-1.1-1.6-2.2v-10.4c0-5.6,2.9-8.6,8.3-8.6h6.6Z"/>
            <path class="cls-2" d="M679,686.6c0-.6.3-1,.9-1h13.9c5.4,0,8.3,3,8.3,8.6v11.8c0,5.6-2.9,8.6-8.3,8.6h-7.3v12.1c0,.6-.3,1-.9,1h-5.7c-.6,0-.9-.5-.9-1.1v-40h0ZM692.3,706.9c1.6,0,2.3-.9,2.3-2.4v-8.8c0-1.6-.8-2.4-2.3-2.4h-5.8v13.7h5.8Z"/>
            <path class="cls-2" d="M711.5,694.3c0-5.6,2.9-8.6,8.3-8.6h6.5c5.4,0,8.3,3,8.3,8.6v24.7c0,5.6-2.9,8.6-8.3,8.6h-6.5c-5.4,0-8.3-3-8.3-8.6v-24.7ZM725,719.9c1.5,0,2.3-.8,2.3-2.4v-21.7c0-1.6-.8-2.4-2.3-2.4h-3.7c-1.5,0-2.3.8-2.3,2.4v21.7c0,1.6.8,2.4,2.3,2.4h3.7Z"/>
            <path class="cls-2" d="M767.5,706.3c0,3.5-1.1,5.9-3.2,7.3l3,12.9c.2.7-.2,1.1-.8,1.1h-5.7c-.6,0-.9-.3-1-.8l-2.8-11.8h-5.1v11.7c0,.6-.3,1-.9,1h-5.7c-.6,0-.9-.4-.9-1v-40.1c0-.6.3-1,.9-1h13.9c5.4,0,8.3,3,8.3,8.6v12.1ZM757.7,707.2c1.5,0,2.3-.8,2.3-2.4v-9.1c0-1.6-.8-2.4-2.3-2.4h-5.8v13.9h5.8Z"/>
            <path class="cls-2" d="M798.3,685.6c.6,0,.9.4.9,1v6c0,.6-.3,1-.9,1h-6.7v33.1c0,.7-.3,1-.9,1h-6c-.6,0-.9-.3-.9-1v-33.1h-6.7c-.6,0-.9-.4-.9-1v-6c0-.6.3-1,.9-1h21.2Z"/>
            <path class="cls-2" d="M822.8,685.6c5.4,0,8.3,3,8.3,8.6v4c0,.6-.3,1-.9,1h-5.8c-.6,0-.9-.4-.9-1v-2.5c0-1.6-.8-2.4-2.3-2.4h-3.3c-1.4,0-2.3.8-2.3,2.4v5.1l14,4.7c1,.4,1.5,1.1,1.5,2.2v11.3c0,5.6-2.9,8.6-8.3,8.6h-6.5c-5.4,0-8.3-3-8.3-8.6v-3.9c0-.7.3-1,.9-1h5.8c.6,0,.9.3.9,1v2.5c0,1.6.9,2.4,2.3,2.4h3.1c1.5,0,2.3-.8,2.3-2.4v-6.1l-13.9-4.7c-1-.4-1.6-1.1-1.6-2.2v-10.4c0-5.6,2.9-8.6,8.3-8.6h6.7Z"/>
          </g>
          <path id="U" class="cls-2" d="M442.9,445.7c2.2,0,3.9,1.7,3.9,3.9v124.1c0,18.4-9.8,28.1-28.1,28.1h-21.9c-18.3,0-28.1-9.8-28.1-28.1v-124.1c0-2.2,1.7-3.9,3.9-3.9h18.7c2.1,0,3.9,1.8,3.9,3.9v118.7c0,5.3,2.7,7.8,7.8,7.8h10.1c5.1,0,7.8-2.5,7.8-7.8v-118.7c0-2.2,1.8-3.9,3.9-3.9h18.1Z"/>
          <path id="O" class="cls-2" d="M466.4,473.8c0-18.4,9.8-28.1,28.1-28.1h21.9c18.4,0,28.1,9.8,28.1,28.1v99.9c0,18.4-9.8,28.1-28.1,28.1h-21.9c-18.3,0-28.1-9.8-28.1-28.1v-99.9h0ZM511.5,576.7c5.1,0,7.8-2.5,7.8-7.8v-90.2c0-5.1-2.7-7.8-7.8-7.8h-11.3c-5.1,0-7.8,2.7-7.8,7.8v90.2c0,5.3,2.7,7.8,7.8,7.8h11.3Z"/>
          <path id="S" class="cls-2" d="M613.9,445.7c18.3,0,28.1,9.8,28.1,28.1v20.7c.2,1.5-.9,2.9-2.4,3.1h-21c-1.6.1-3-1-3.1-2.6v-15.7c0-5.1-2.5-7.8-7.8-7.8h-9.4c-4.9,0-7.8,2.7-7.8,7.8v26.9l46.5,15.2c3.3,1.4,5.1,3.5,5.1,7.2v45.1c0,18.4-9.8,28.1-28.1,28.1h-21.9c-18.1,0-28.1-9.8-28.1-28.1v-20.4c-.2-1.5.9-2.9,2.4-3.1h21c2.1,0,3.1,1,3.1,3.1v15c0,5.3,2.9,7.8,7.8,7.8h9.4c5.1,0,7.8-2.5,7.8-7.8v-26l-46.2-15.2c-3.5-1.2-5.3-3.5-5.3-7.2v-46.1c0-18.4,9.9-28.1,28.1-28.1h21.8Z"/>
          <path id="S-2" data-name="S" class="cls-2" d="M711.5,445.7c18.4,0,28.1,9.8,28.1,28.1v20.7c.2,1.5-.9,2.9-2.4,3.1h-21c-1.6.1-3-1-3.1-2.6v-15.7c0-5.1-2.5-7.8-7.8-7.8h-9.4c-4.9,0-7.8,2.7-7.8,7.8v26.9l46.5,15.2c3.3,1.4,5,3.5,5,7.3v45c0,18.4-9.8,28.1-28.1,28.1h-21.9c-18.2,0-28.1-9.8-28.1-28.1v-20.4c-.2-1.5.9-2.9,2.4-3.1h21c2.2,0,3.1,1,3.1,3.1v15c0,5.3,2.9,7.8,7.8,7.8h9.4c5.1,0,7.8-2.5,7.8-7.8v-26l-46.2-15.2c-3.5-1.2-5.3-3.5-5.3-7.2v-46.1c0-18.3,10-28.1,28.1-28.1h21.9Z"/>
          <path id="S-3" data-name="S" class="cls-2" d="M809.1,445.7c18.3,0,28.1,9.8,28.1,28.1v20.7c.2,1.5-.9,2.9-2.4,3.1h-21c-1.6.1-3-1-3.1-2.6v-15.7c0-5.1-2.5-7.8-7.8-7.8h-9.4c-4.9,0-7.8,2.7-7.8,7.8v26.9l46.5,15.2c3.3,1.4,5.1,3.5,5.1,7.2v45.1c0,18.4-9.8,28.1-28.1,28.1h-21.9c-18.2,0-28.1-9.8-28.1-28.1v-20.4c-.2-1.5.9-2.9,2.4-3.1h21c2.2,0,3.1,1,3.1,3.1v15c0,5.3,2.9,7.8,7.8,7.8h9.4c5.1,0,7.8-2.5,7.8-7.8v-26l-46.3-15.2c-3.5-1.2-5.3-3.5-5.3-7.2v-46.1c0-18.4,10-28.1,28.1-28.1h21.9Z"/>
          <path class="cls-2" d="M1085.5,631.1h-80.4v-3.6c0-3.2-2.6-5.8-5.8-5.8h-9.3v-78.3c0-3.1-2.5-5.6-5.6-5.6h-10.3c-3.1,0-5.6,2.5-5.6,5.6v87.6h-6.1v-87.5c0-3.1-2.5-5.6-5.6-5.6h-10.3c-3.1,0-5.6,2.5-5.6,5.6v87.6h-7.4v-87.6c0-3.1-2.5-5.6-5.6-5.6h-10.3c-3.1,0-5.6,2.5-5.6,5.6v69.3h-18.8c-2.2,0-3.9,1.8-3.9,3.9v19.3H310.8v-19.3c0-2.2-1.8-3.9-3.9-3.9h-18.8v-69.3c0-3.1-2.5-5.6-5.6-5.6h-10.4c-3.1,0-5.6,2.5-5.6,5.6v87.7h-6.4v-87.7c0-3.1-2.5-5.6-5.6-5.6h-10.4c-3.1,0-5.6,2.5-5.6,5.6v87.7h-6.1v-87.7c0-3.1-2.5-5.6-5.6-5.6h-10.2c-3.1,0-5.6,2.5-5.6,5.6v78.2h-9.3c-3.2,0-5.8,2.6-5.8,5.8v3.6h-81.4c-1,0-1.9.9-1.9,1.9v26.1c0,1,.9,1.9,1.9,1.9h81.4v3.6c0,3.2,2.6,5.8,5.8,5.8h9.3v78.3c0,3.1,2.5,5.6,5.6,5.6h10.3c3.1,0,5.6-2.5,5.6-5.6v-87.6h6.1v87.6c0,3.1,2.5,5.6,5.6,5.6h10.4c3.1,0,5.6-2.5,5.6-5.6v-87.6h6.4v87.6c0,3.1,2.5,5.6,5.6,5.6h10.4c3.1,0,5.6-2.5,5.6-5.6v-69.3h18.8c2.2,0,3.9-1.8,3.9-3.9v-19.2h578.4v19.2c0,2.2,1.8,3.9,3.9,3.9h18.8v69.3c0,3.1,2.5,5.6,5.6,5.6h10.3c3.1,0,5.6-2.5,5.6-5.6v-87.7h7.4v87.7c0,3.1,2.5,5.6,5.6,5.6h10.3c3.1,0,5.6-2.5,5.6-5.6v-87.7h6.1v87.6c0,3.1,2.5,5.6,5.6,5.6h10.3c3.1,0,5.6-2.5,5.6-5.6v-78.2h9.3c3.2,0,5.8-2.6,5.8-5.8v-3.6h80.4c1,0,1.9-.9,1.9-1.9v-26.1c0-1-.9-1.9-1.9-1.9Z"/>
        </g>
      </g>
    </g>
  </g>
</svg>